<?xml version="1.0" encoding="UTF-8"?>
<svg width="1072px" height="151px" viewBox="0 0 1072 151" version="1.1" xmlns="http://www.w3.org/2000/svg" xmlns:xlink="http://www.w3.org/1999/xlink">
    <!-- Generator: Sketch 51.2 (57519) - http://www.bohemiancoding.com/sketch -->
    <title>Group 3</title>
    <desc>Created with Sketch.</desc>
    <defs></defs>
    <g id="working" stroke="none" stroke-width="1" fill="none" fill-rule="evenodd">
        <g id="Group-3" transform="translate(-1.000000, 0.000000)">
            <g id="Group-2">
                <path d="M16.6108724,26.0783508 L18.4768585,22.986566 C19.0427435,22.0489412 20.2574809,21.7408105 21.2018662,22.2953396 L191.462382,122.269803 C192.414885,122.829099 192.733642,124.054654 192.174346,125.007157 C192.170273,125.014095 192.166157,125.021007 192.162,125.027895 L190.296014,128.11968 C189.730129,129.057305 188.515392,129.365436 187.571006,128.810907 L17.3104911,28.8364431 C16.357988,28.2771474 16.0392305,27.0515923 16.5985262,26.0990893 C16.6025999,26.0921517 16.6067154,26.0852388 16.6108724,26.0783508 Z" id="Rectangle-10-Copy-3" fill="#2A1C0E"></path>
                <path d="M18.3308176,20.7846097 L29.3308176,1.73205081 C29.8831024,0.775465561 31.1062832,0.44771525 32.0628684,1 L205.267949,101 C206.224534,101.552285 206.552285,102.775466 206,103.732051 L195,122.78461 C194.447715,123.741195 193.224534,124.068945 192.267949,123.51666 L19.0628684,23.5166605 C18.1062832,22.9643757 17.7785329,21.7411949 18.3308176,20.7846097 Z" id="Rectangle-10-Copy" fill="#F3C38B"></path>
                <path d="M1.33081763,47.7846097 L12.3308176,28.7320508 C12.8831024,27.7754656 14.1062832,27.4477153 15.0628684,28 L188.267949,128 C189.224534,128.552285 189.552285,129.775466 189,130.732051 L178,149.78461 C177.447715,150.741195 176.224534,151.068945 175.267949,150.51666 L2.06286844,50.5166605 C1.10628319,49.9643757 0.778532878,48.7411949 1.33081763,47.7846097 Z" id="Rectangle-10-Copy-2" fill="#F3C38B"></path>
                <path d="M30.3308176,1 L148.451596,1 C151.447764,1 154.192777,2.67419084 155.564261,5.33803384 L203.773884,98.9759565 C204.02669,99.4669835 203.833574,100.069979 203.342547,100.322785 C203.0402,100.478449 202.679468,100.469793 202.384936,100.299805 L30.3308176,1 Z" id="Path-2" fill="#FFECC6"></path>
            </g>
            <text id="Vegemite-Boterham" font-family="CircularStd-Bold, Circular Std" font-size="90" font-weight="bold" fill="#444444">
                <tspan x="253" y="109">Vegemite Boterham</tspan>
            </text>
        </g>
    </g>
</svg>